<?xml version="1.0" encoding="utf-8" standalone="no"?>
<!DOCTYPE svg PUBLIC "-//W3C//DTD SVG 1.1//EN"
  "http://www.w3.org/Graphics/SVG/1.1/DTD/svg11.dtd">
<!-- Created with matplotlib (https://matplotlib.org/) -->
<svg height="345.6pt" version="1.1" viewBox="0 0 460.8 345.6" width="460.8pt" xmlns="http://www.w3.org/2000/svg" xmlns:xlink="http://www.w3.org/1999/xlink">
 <defs>
  <style type="text/css">
*{stroke-linecap:butt;stroke-linejoin:round;white-space:pre;}
  </style>
 </defs>
 <g id="figure_1">
  <g id="patch_1">
   <path d="M 0 345.6 
L 460.8 345.6 
L 460.8 0 
L 0 0 
z
" style="fill:#ffffff;"/>
  </g>
  <g id="axes_1">
   <g id="patch_2">
    <path d="M 57.6 307.584 
L 414.72 307.584 
L 414.72 41.472 
L 57.6 41.472 
z
" style="fill:#eaeaf2;"/>
   </g>
   <g id="matplotlib.axis_1">
    <g id="xtick_1">
     <g id="line2d_1">
      <path clip-path="url(#p627a6ad221)" d="M 73.832727 307.584 
L 73.832727 41.472 
" style="fill:none;stroke:#ffffff;stroke-linecap:round;"/>
     </g>
     <g id="text_1">
      <!-- 0 -->
      <defs>
       <path d="M 4.15625 35.296875 
Q 4.15625 48 6.765625 55.734375 
Q 9.375 63.484375 14.515625 67.671875 
Q 19.671875 71.875 27.484375 71.875 
Q 33.25 71.875 37.59375 69.546875 
Q 41.9375 67.234375 44.765625 62.859375 
Q 47.609375 58.5 49.21875 52.21875 
Q 50.828125 45.953125 50.828125 35.296875 
Q 50.828125 22.703125 48.234375 14.96875 
Q 45.65625 7.234375 40.5 3 
Q 35.359375 -1.21875 27.484375 -1.21875 
Q 17.140625 -1.21875 11.234375 6.203125 
Q 4.15625 15.140625 4.15625 35.296875 
z
M 13.1875 35.296875 
Q 13.1875 17.671875 17.3125 11.828125 
Q 21.4375 6 27.484375 6 
Q 33.546875 6 37.671875 11.859375 
Q 41.796875 17.71875 41.796875 35.296875 
Q 41.796875 52.984375 37.671875 58.78125 
Q 33.546875 64.59375 27.390625 64.59375 
Q 21.34375 64.59375 17.71875 59.46875 
Q 13.1875 52.9375 13.1875 35.296875 
z
" id="ArialMT-48"/>
      </defs>
      <g style="fill:#262626;" transform="translate(70.774212 324.957594)scale(0.11 -0.11)">
       <use xlink:href="#ArialMT-48"/>
      </g>
     </g>
    </g>
    <g id="xtick_2">
     <g id="line2d_2">
      <path clip-path="url(#p627a6ad221)" d="M 134.233573 307.584 
L 134.233573 41.472 
" style="fill:none;stroke:#ffffff;stroke-linecap:round;"/>
     </g>
     <g id="text_2">
      <!-- 20000 -->
      <defs>
       <path d="M 50.34375 8.453125 
L 50.34375 0 
L 3.03125 0 
Q 2.9375 3.171875 4.046875 6.109375 
Q 5.859375 10.9375 9.828125 15.625 
Q 13.8125 20.3125 21.34375 26.46875 
Q 33.015625 36.03125 37.109375 41.625 
Q 41.21875 47.21875 41.21875 52.203125 
Q 41.21875 57.421875 37.46875 61 
Q 33.734375 64.59375 27.734375 64.59375 
Q 21.390625 64.59375 17.578125 60.78125 
Q 13.765625 56.984375 13.71875 50.25 
L 4.6875 51.171875 
Q 5.609375 61.28125 11.65625 66.578125 
Q 17.71875 71.875 27.9375 71.875 
Q 38.234375 71.875 44.234375 66.15625 
Q 50.25 60.453125 50.25 52 
Q 50.25 47.703125 48.484375 43.546875 
Q 46.734375 39.40625 42.65625 34.8125 
Q 38.578125 30.21875 29.109375 22.21875 
Q 21.1875 15.578125 18.9375 13.203125 
Q 16.703125 10.84375 15.234375 8.453125 
z
" id="ArialMT-50"/>
      </defs>
      <g style="fill:#262626;" transform="translate(118.940995 324.957594)scale(0.11 -0.11)">
       <use xlink:href="#ArialMT-50"/>
       <use x="55.615234" xlink:href="#ArialMT-48"/>
       <use x="111.230469" xlink:href="#ArialMT-48"/>
       <use x="166.845703" xlink:href="#ArialMT-48"/>
       <use x="222.460938" xlink:href="#ArialMT-48"/>
      </g>
     </g>
    </g>
    <g id="xtick_3">
     <g id="line2d_3">
      <path clip-path="url(#p627a6ad221)" d="M 194.634419 307.584 
L 194.634419 41.472 
" style="fill:none;stroke:#ffffff;stroke-linecap:round;"/>
     </g>
     <g id="text_3">
      <!-- 40000 -->
      <defs>
       <path d="M 32.328125 0 
L 32.328125 17.140625 
L 1.265625 17.140625 
L 1.265625 25.203125 
L 33.9375 71.578125 
L 41.109375 71.578125 
L 41.109375 25.203125 
L 50.78125 25.203125 
L 50.78125 17.140625 
L 41.109375 17.140625 
L 41.109375 0 
z
M 32.328125 25.203125 
L 32.328125 57.46875 
L 9.90625 25.203125 
z
" id="ArialMT-52"/>
      </defs>
      <g style="fill:#262626;" transform="translate(179.34184 324.957594)scale(0.11 -0.11)">
       <use xlink:href="#ArialMT-52"/>
       <use x="55.615234" xlink:href="#ArialMT-48"/>
       <use x="111.230469" xlink:href="#ArialMT-48"/>
       <use x="166.845703" xlink:href="#ArialMT-48"/>
       <use x="222.460938" xlink:href="#ArialMT-48"/>
      </g>
     </g>
    </g>
    <g id="xtick_4">
     <g id="line2d_4">
      <path clip-path="url(#p627a6ad221)" d="M 255.035264 307.584 
L 255.035264 41.472 
" style="fill:none;stroke:#ffffff;stroke-linecap:round;"/>
     </g>
     <g id="text_4">
      <!-- 60000 -->
      <defs>
       <path d="M 49.75 54.046875 
L 41.015625 53.375 
Q 39.84375 58.546875 37.703125 60.890625 
Q 34.125 64.65625 28.90625 64.65625 
Q 24.703125 64.65625 21.53125 62.3125 
Q 17.390625 59.28125 14.984375 53.46875 
Q 12.59375 47.65625 12.5 36.921875 
Q 15.671875 41.75 20.265625 44.09375 
Q 24.859375 46.4375 29.890625 46.4375 
Q 38.671875 46.4375 44.84375 39.96875 
Q 51.03125 33.5 51.03125 23.25 
Q 51.03125 16.5 48.125 10.71875 
Q 45.21875 4.9375 40.140625 1.859375 
Q 35.0625 -1.21875 28.609375 -1.21875 
Q 17.625 -1.21875 10.6875 6.859375 
Q 3.765625 14.9375 3.765625 33.5 
Q 3.765625 54.25 11.421875 63.671875 
Q 18.109375 71.875 29.4375 71.875 
Q 37.890625 71.875 43.28125 67.140625 
Q 48.6875 62.40625 49.75 54.046875 
z
M 13.875 23.1875 
Q 13.875 18.65625 15.796875 14.5 
Q 17.71875 10.359375 21.1875 8.171875 
Q 24.65625 6 28.46875 6 
Q 34.03125 6 38.03125 10.484375 
Q 42.046875 14.984375 42.046875 22.703125 
Q 42.046875 30.125 38.078125 34.390625 
Q 34.125 38.671875 28.125 38.671875 
Q 22.171875 38.671875 18.015625 34.390625 
Q 13.875 30.125 13.875 23.1875 
z
" id="ArialMT-54"/>
      </defs>
      <g style="fill:#262626;" transform="translate(239.742686 324.957594)scale(0.11 -0.11)">
       <use xlink:href="#ArialMT-54"/>
       <use x="55.615234" xlink:href="#ArialMT-48"/>
       <use x="111.230469" xlink:href="#ArialMT-48"/>
       <use x="166.845703" xlink:href="#ArialMT-48"/>
       <use x="222.460938" xlink:href="#ArialMT-48"/>
      </g>
     </g>
    </g>
    <g id="xtick_5">
     <g id="line2d_5">
      <path clip-path="url(#p627a6ad221)" d="M 315.43611 307.584 
L 315.43611 41.472 
" style="fill:none;stroke:#ffffff;stroke-linecap:round;"/>
     </g>
     <g id="text_5">
      <!-- 80000 -->
      <defs>
       <path d="M 17.671875 38.8125 
Q 12.203125 40.828125 9.5625 44.53125 
Q 6.9375 48.25 6.9375 53.421875 
Q 6.9375 61.234375 12.546875 66.546875 
Q 18.171875 71.875 27.484375 71.875 
Q 36.859375 71.875 42.578125 66.421875 
Q 48.296875 60.984375 48.296875 53.171875 
Q 48.296875 48.1875 45.671875 44.5 
Q 43.0625 40.828125 37.75 38.8125 
Q 44.34375 36.671875 47.78125 31.875 
Q 51.21875 27.09375 51.21875 20.453125 
Q 51.21875 11.28125 44.71875 5.03125 
Q 38.234375 -1.21875 27.640625 -1.21875 
Q 17.046875 -1.21875 10.546875 5.046875 
Q 4.046875 11.328125 4.046875 20.703125 
Q 4.046875 27.6875 7.59375 32.390625 
Q 11.140625 37.109375 17.671875 38.8125 
z
M 15.921875 53.71875 
Q 15.921875 48.640625 19.1875 45.40625 
Q 22.46875 42.1875 27.6875 42.1875 
Q 32.765625 42.1875 36.015625 45.375 
Q 39.265625 48.578125 39.265625 53.21875 
Q 39.265625 58.0625 35.90625 61.359375 
Q 32.5625 64.65625 27.59375 64.65625 
Q 22.5625 64.65625 19.234375 61.421875 
Q 15.921875 58.203125 15.921875 53.71875 
z
M 13.09375 20.65625 
Q 13.09375 16.890625 14.875 13.375 
Q 16.65625 9.859375 20.171875 7.921875 
Q 23.6875 6 27.734375 6 
Q 34.03125 6 38.125 10.046875 
Q 42.234375 14.109375 42.234375 20.359375 
Q 42.234375 26.703125 38.015625 30.859375 
Q 33.796875 35.015625 27.4375 35.015625 
Q 21.234375 35.015625 17.15625 30.90625 
Q 13.09375 26.8125 13.09375 20.65625 
z
" id="ArialMT-56"/>
      </defs>
      <g style="fill:#262626;" transform="translate(300.143532 324.957594)scale(0.11 -0.11)">
       <use xlink:href="#ArialMT-56"/>
       <use x="55.615234" xlink:href="#ArialMT-48"/>
       <use x="111.230469" xlink:href="#ArialMT-48"/>
       <use x="166.845703" xlink:href="#ArialMT-48"/>
       <use x="222.460938" xlink:href="#ArialMT-48"/>
      </g>
     </g>
    </g>
    <g id="xtick_6">
     <g id="line2d_6">
      <path clip-path="url(#p627a6ad221)" d="M 375.836956 307.584 
L 375.836956 41.472 
" style="fill:none;stroke:#ffffff;stroke-linecap:round;"/>
     </g>
     <g id="text_6">
      <!-- 100000 -->
      <defs>
       <path d="M 37.25 0 
L 28.46875 0 
L 28.46875 56 
Q 25.296875 52.984375 20.140625 49.953125 
Q 14.984375 46.921875 10.890625 45.40625 
L 10.890625 53.90625 
Q 18.265625 57.375 23.78125 62.296875 
Q 29.296875 67.234375 31.59375 71.875 
L 37.25 71.875 
z
" id="ArialMT-49"/>
      </defs>
      <g style="fill:#262626;" transform="translate(357.485862 324.957594)scale(0.11 -0.11)">
       <use xlink:href="#ArialMT-49"/>
       <use x="55.615234" xlink:href="#ArialMT-48"/>
       <use x="111.230469" xlink:href="#ArialMT-48"/>
       <use x="166.845703" xlink:href="#ArialMT-48"/>
       <use x="222.460938" xlink:href="#ArialMT-48"/>
       <use x="278.076172" xlink:href="#ArialMT-48"/>
      </g>
     </g>
    </g>
   </g>
   <g id="matplotlib.axis_2">
    <g id="ytick_1">
     <g id="line2d_7">
      <path clip-path="url(#p627a6ad221)" d="M 57.6 307.584 
L 414.72 307.584 
" style="fill:none;stroke:#ffffff;stroke-linecap:round;"/>
     </g>
     <g id="text_7">
      <!-- 0 -->
      <g style="fill:#262626;" transform="translate(41.982969 311.520797)scale(0.11 -0.11)">
       <use xlink:href="#ArialMT-48"/>
      </g>
     </g>
    </g>
    <g id="ytick_2">
     <g id="line2d_8">
      <path clip-path="url(#p627a6ad221)" d="M 57.6 266.004 
L 414.72 266.004 
" style="fill:none;stroke:#ffffff;stroke-linecap:round;"/>
     </g>
     <g id="text_8">
      <!-- 5 -->
      <defs>
       <path d="M 4.15625 18.75 
L 13.375 19.53125 
Q 14.40625 12.796875 18.140625 9.390625 
Q 21.875 6 27.15625 6 
Q 33.5 6 37.890625 10.78125 
Q 42.28125 15.578125 42.28125 23.484375 
Q 42.28125 31 38.0625 35.34375 
Q 33.84375 39.703125 27 39.703125 
Q 22.75 39.703125 19.328125 37.765625 
Q 15.921875 35.84375 13.96875 32.765625 
L 5.71875 33.84375 
L 12.640625 70.609375 
L 48.25 70.609375 
L 48.25 62.203125 
L 19.671875 62.203125 
L 15.828125 42.96875 
Q 22.265625 47.46875 29.34375 47.46875 
Q 38.71875 47.46875 45.15625 40.96875 
Q 51.609375 34.46875 51.609375 24.265625 
Q 51.609375 14.546875 45.953125 7.46875 
Q 39.0625 -1.21875 27.15625 -1.21875 
Q 17.390625 -1.21875 11.203125 4.25 
Q 5.03125 9.71875 4.15625 18.75 
z
" id="ArialMT-53"/>
      </defs>
      <g style="fill:#262626;" transform="translate(41.982969 269.940797)scale(0.11 -0.11)">
       <use xlink:href="#ArialMT-53"/>
      </g>
     </g>
    </g>
    <g id="ytick_3">
     <g id="line2d_9">
      <path clip-path="url(#p627a6ad221)" d="M 57.6 224.424 
L 414.72 224.424 
" style="fill:none;stroke:#ffffff;stroke-linecap:round;"/>
     </g>
     <g id="text_9">
      <!-- 10 -->
      <g style="fill:#262626;" transform="translate(35.865938 228.360797)scale(0.11 -0.11)">
       <use xlink:href="#ArialMT-49"/>
       <use x="55.615234" xlink:href="#ArialMT-48"/>
      </g>
     </g>
    </g>
    <g id="ytick_4">
     <g id="line2d_10">
      <path clip-path="url(#p627a6ad221)" d="M 57.6 182.844 
L 414.72 182.844 
" style="fill:none;stroke:#ffffff;stroke-linecap:round;"/>
     </g>
     <g id="text_10">
      <!-- 15 -->
      <g style="fill:#262626;" transform="translate(35.865938 186.780797)scale(0.11 -0.11)">
       <use xlink:href="#ArialMT-49"/>
       <use x="55.615234" xlink:href="#ArialMT-53"/>
      </g>
     </g>
    </g>
    <g id="ytick_5">
     <g id="line2d_11">
      <path clip-path="url(#p627a6ad221)" d="M 57.6 141.264 
L 414.72 141.264 
" style="fill:none;stroke:#ffffff;stroke-linecap:round;"/>
     </g>
     <g id="text_11">
      <!-- 20 -->
      <g style="fill:#262626;" transform="translate(35.865938 145.200797)scale(0.11 -0.11)">
       <use xlink:href="#ArialMT-50"/>
       <use x="55.615234" xlink:href="#ArialMT-48"/>
      </g>
     </g>
    </g>
    <g id="ytick_6">
     <g id="line2d_12">
      <path clip-path="url(#p627a6ad221)" d="M 57.6 99.684 
L 414.72 99.684 
" style="fill:none;stroke:#ffffff;stroke-linecap:round;"/>
     </g>
     <g id="text_12">
      <!-- 25 -->
      <g style="fill:#262626;" transform="translate(35.865938 103.620797)scale(0.11 -0.11)">
       <use xlink:href="#ArialMT-50"/>
       <use x="55.615234" xlink:href="#ArialMT-53"/>
      </g>
     </g>
    </g>
    <g id="ytick_7">
     <g id="line2d_13">
      <path clip-path="url(#p627a6ad221)" d="M 57.6 58.104 
L 414.72 58.104 
" style="fill:none;stroke:#ffffff;stroke-linecap:round;"/>
     </g>
     <g id="text_13">
      <!-- 30 -->
      <defs>
       <path d="M 4.203125 18.890625 
L 12.984375 20.0625 
Q 14.5 12.59375 18.140625 9.296875 
Q 21.78125 6 27 6 
Q 33.203125 6 37.46875 10.296875 
Q 41.75 14.59375 41.75 20.953125 
Q 41.75 27 37.796875 30.921875 
Q 33.84375 34.859375 27.734375 34.859375 
Q 25.25 34.859375 21.53125 33.890625 
L 22.515625 41.609375 
Q 23.390625 41.5 23.921875 41.5 
Q 29.546875 41.5 34.03125 44.421875 
Q 38.53125 47.359375 38.53125 53.46875 
Q 38.53125 58.296875 35.25 61.46875 
Q 31.984375 64.65625 26.8125 64.65625 
Q 21.6875 64.65625 18.265625 61.421875 
Q 14.84375 58.203125 13.875 51.765625 
L 5.078125 53.328125 
Q 6.6875 62.15625 12.390625 67.015625 
Q 18.109375 71.875 26.609375 71.875 
Q 32.46875 71.875 37.390625 69.359375 
Q 42.328125 66.84375 44.9375 62.5 
Q 47.5625 58.15625 47.5625 53.265625 
Q 47.5625 48.640625 45.0625 44.828125 
Q 42.578125 41.015625 37.703125 38.765625 
Q 44.046875 37.3125 47.5625 32.6875 
Q 51.078125 28.078125 51.078125 21.140625 
Q 51.078125 11.765625 44.234375 5.25 
Q 37.40625 -1.265625 26.953125 -1.265625 
Q 17.53125 -1.265625 11.296875 4.34375 
Q 5.078125 9.96875 4.203125 18.890625 
z
" id="ArialMT-51"/>
      </defs>
      <g style="fill:#262626;" transform="translate(35.865938 62.040797)scale(0.11 -0.11)">
       <use xlink:href="#ArialMT-51"/>
       <use x="55.615234" xlink:href="#ArialMT-48"/>
      </g>
     </g>
    </g>
   </g>
   <g id="PolyCollection_1">
    <defs>
     <path d="M 73.832727 -71.28 
L 73.832727 -38.016 
L 81.382833 -38.016 
L 88.932939 -38.016 
L 96.483044 -38.016 
L 104.03315 -38.016 
L 111.583256 -38.016 
L 119.133362 -38.016 
L 126.683467 -38.016 
L 134.233573 -38.016 
L 141.783679 -38.016 
L 149.333784 -38.016 
L 156.88389 -38.016 
L 164.433996 -38.016 
L 171.984101 -38.016 
L 179.534207 -38.016 
L 187.084313 -38.016 
L 194.634419 -38.016 
L 202.184524 -38.016 
L 209.73463 -38.016 
L 217.284736 -38.016 
L 224.834841 -38.016 
L 232.384947 -38.016 
L 239.935053 -38.016 
L 247.485159 -38.016 
L 255.035264 -38.016 
L 262.58537 -38.016 
L 270.135476 -38.016 
L 277.685581 -38.016 
L 285.235687 -38.016 
L 292.785793 -38.016 
L 300.335899 -38.016 
L 307.886004 -38.016 
L 315.43611 -38.016 
L 322.986216 -38.016 
L 330.536321 -38.016 
L 338.086427 -38.016 
L 345.636533 -38.016 
L 353.186638 -38.016 
L 360.736744 -38.016 
L 368.28685 -38.016 
L 375.836956 -38.016 
L 383.387061 -38.016 
L 390.937167 -38.016 
L 398.487273 -38.016 
L 398.487273 -87.912 
L 398.487273 -87.912 
L 390.937167 -121.176 
L 383.387061 -121.176 
L 375.836956 -96.228 
L 368.28685 -121.176 
L 360.736744 -129.492 
L 353.186638 -112.86 
L 345.636533 -112.86 
L 338.086427 -121.176 
L 330.536321 -121.176 
L 322.986216 -112.86 
L 315.43611 -112.86 
L 307.886004 -121.176 
L 300.335899 -121.176 
L 292.785793 -104.544 
L 285.235687 -129.492 
L 277.685581 -121.176 
L 270.135476 -112.86 
L 262.58537 -121.176 
L 255.035264 -112.86 
L 247.485159 -112.86 
L 239.935053 -112.86 
L 232.384947 -112.86 
L 224.834841 -112.86 
L 217.284736 -121.176 
L 209.73463 -112.86 
L 202.184524 -112.86 
L 194.634419 -96.228 
L 187.084313 -104.544 
L 179.534207 -96.228 
L 171.984101 -112.86 
L 164.433996 -112.86 
L 156.88389 -87.912 
L 149.333784 -96.228 
L 141.783679 -112.86 
L 134.233573 -104.544 
L 126.683467 -112.86 
L 119.133362 -104.544 
L 111.583256 -112.86 
L 104.03315 -104.544 
L 96.483044 -112.86 
L 88.932939 -112.86 
L 81.382833 -79.596 
L 73.832727 -71.28 
z
" id="ma913512433" style="stroke:#ffffff;stroke-opacity:0.4;"/>
    </defs>
    <g clip-path="url(#p627a6ad221)">
     <use style="fill:#e41a1c;fill-opacity:0.4;stroke:#ffffff;stroke-opacity:0.4;" x="0" xlink:href="#ma913512433" y="345.6"/>
    </g>
   </g>
   <g id="PolyCollection_2">
    <defs>
     <path d="M 73.832727 -79.596 
L 73.832727 -71.28 
L 81.382833 -79.596 
L 88.932939 -112.86 
L 96.483044 -112.86 
L 104.03315 -104.544 
L 111.583256 -112.86 
L 119.133362 -104.544 
L 126.683467 -112.86 
L 134.233573 -104.544 
L 141.783679 -112.86 
L 149.333784 -96.228 
L 156.88389 -87.912 
L 164.433996 -112.86 
L 171.984101 -112.86 
L 179.534207 -96.228 
L 187.084313 -104.544 
L 194.634419 -96.228 
L 202.184524 -112.86 
L 209.73463 -112.86 
L 217.284736 -121.176 
L 224.834841 -112.86 
L 232.384947 -112.86 
L 239.935053 -112.86 
L 247.485159 -112.86 
L 255.035264 -112.86 
L 262.58537 -121.176 
L 270.135476 -112.86 
L 277.685581 -121.176 
L 285.235687 -129.492 
L 292.785793 -104.544 
L 300.335899 -121.176 
L 307.886004 -121.176 
L 315.43611 -112.86 
L 322.986216 -112.86 
L 330.536321 -121.176 
L 338.086427 -121.176 
L 345.636533 -112.86 
L 353.186638 -112.86 
L 360.736744 -129.492 
L 368.28685 -121.176 
L 375.836956 -96.228 
L 383.387061 -121.176 
L 390.937167 -121.176 
L 398.487273 -87.912 
L 398.487273 -137.808 
L 398.487273 -137.808 
L 390.937167 -179.388 
L 383.387061 -179.388 
L 375.836956 -162.756 
L 368.28685 -179.388 
L 360.736744 -187.704 
L 353.186638 -162.756 
L 345.636533 -154.44 
L 338.086427 -171.072 
L 330.536321 -196.02 
L 322.986216 -171.072 
L 315.43611 -196.02 
L 307.886004 -171.072 
L 300.335899 -187.704 
L 292.785793 -171.072 
L 285.235687 -187.704 
L 277.685581 -162.756 
L 270.135476 -171.072 
L 262.58537 -179.388 
L 255.035264 -171.072 
L 247.485159 -171.072 
L 239.935053 -187.704 
L 232.384947 -171.072 
L 224.834841 -171.072 
L 217.284736 -179.388 
L 209.73463 -204.336 
L 202.184524 -179.388 
L 194.634419 -146.124 
L 187.084313 -162.756 
L 179.534207 -154.44 
L 171.984101 -162.756 
L 164.433996 -187.704 
L 156.88389 -171.072 
L 149.333784 -154.44 
L 141.783679 -171.072 
L 134.233573 -146.124 
L 126.683467 -162.756 
L 119.133362 -154.44 
L 111.583256 -162.756 
L 104.03315 -171.072 
L 96.483044 -179.388 
L 88.932939 -154.44 
L 81.382833 -104.544 
L 73.832727 -79.596 
z
" id="mb9b87059ad" style="stroke:#ffffff;stroke-opacity:0.4;"/>
    </defs>
    <g clip-path="url(#p627a6ad221)">
     <use style="fill:#377eb8;fill-opacity:0.4;stroke:#ffffff;stroke-opacity:0.4;" x="0" xlink:href="#mb9b87059ad" y="345.6"/>
    </g>
   </g>
   <g id="PolyCollection_3">
    <defs>
     <path d="M 73.832727 -121.176 
L 73.832727 -79.596 
L 81.382833 -104.544 
L 88.932939 -154.44 
L 96.483044 -179.388 
L 104.03315 -171.072 
L 111.583256 -162.756 
L 119.133362 -154.44 
L 126.683467 -162.756 
L 134.233573 -146.124 
L 141.783679 -171.072 
L 149.333784 -154.44 
L 156.88389 -171.072 
L 164.433996 -187.704 
L 171.984101 -162.756 
L 179.534207 -154.44 
L 187.084313 -162.756 
L 194.634419 -146.124 
L 202.184524 -179.388 
L 209.73463 -204.336 
L 217.284736 -179.388 
L 224.834841 -171.072 
L 232.384947 -171.072 
L 239.935053 -187.704 
L 247.485159 -171.072 
L 255.035264 -171.072 
L 262.58537 -179.388 
L 270.135476 -171.072 
L 277.685581 -162.756 
L 285.235687 -187.704 
L 292.785793 -171.072 
L 300.335899 -187.704 
L 307.886004 -171.072 
L 315.43611 -196.02 
L 322.986216 -171.072 
L 330.536321 -196.02 
L 338.086427 -171.072 
L 345.636533 -154.44 
L 353.186638 -162.756 
L 360.736744 -187.704 
L 368.28685 -179.388 
L 375.836956 -162.756 
L 383.387061 -179.388 
L 390.937167 -179.388 
L 398.487273 -137.808 
L 398.487273 -187.704 
L 398.487273 -187.704 
L 390.937167 -212.652 
L 383.387061 -245.916 
L 375.836956 -212.652 
L 368.28685 -237.6 
L 360.736744 -245.916 
L 353.186638 -196.02 
L 345.636533 -212.652 
L 338.086427 -220.968 
L 330.536321 -245.916 
L 322.986216 -229.284 
L 315.43611 -254.232 
L 307.886004 -229.284 
L 300.335899 -237.6 
L 292.785793 -229.284 
L 285.235687 -245.916 
L 277.685581 -212.652 
L 270.135476 -220.968 
L 262.58537 -229.284 
L 255.035264 -229.284 
L 247.485159 -220.968 
L 239.935053 -245.916 
L 232.384947 -229.284 
L 224.834841 -220.968 
L 217.284736 -229.284 
L 209.73463 -245.916 
L 202.184524 -237.6 
L 194.634419 -187.704 
L 187.084313 -229.284 
L 179.534207 -204.336 
L 171.984101 -212.652 
L 164.433996 -229.284 
L 156.88389 -204.336 
L 149.333784 -196.02 
L 141.783679 -212.652 
L 134.233573 -179.388 
L 126.683467 -196.02 
L 119.133362 -204.336 
L 111.583256 -204.336 
L 104.03315 -212.652 
L 96.483044 -229.284 
L 88.932939 -204.336 
L 81.382833 -146.124 
L 73.832727 -121.176 
z
" id="ma3cbe6d999" style="stroke:#ffffff;stroke-opacity:0.4;"/>
    </defs>
    <g clip-path="url(#p627a6ad221)">
     <use style="fill:#4daf4a;fill-opacity:0.4;stroke:#ffffff;stroke-opacity:0.4;" x="0" xlink:href="#ma3cbe6d999" y="345.6"/>
    </g>
   </g>
   <g id="patch_3">
    <path d="M 57.6 307.584 
L 57.6 41.472 
" style="fill:none;stroke:#ffffff;stroke-linecap:square;stroke-linejoin:miter;stroke-width:1.25;"/>
   </g>
   <g id="patch_4">
    <path d="M 414.72 307.584 
L 414.72 41.472 
" style="fill:none;stroke:#ffffff;stroke-linecap:square;stroke-linejoin:miter;stroke-width:1.25;"/>
   </g>
   <g id="patch_5">
    <path d="M 57.6 307.584 
L 414.72 307.584 
" style="fill:none;stroke:#ffffff;stroke-linecap:square;stroke-linejoin:miter;stroke-width:1.25;"/>
   </g>
   <g id="patch_6">
    <path d="M 57.6 41.472 
L 414.72 41.472 
" style="fill:none;stroke:#ffffff;stroke-linecap:square;stroke-linejoin:miter;stroke-width:1.25;"/>
   </g>
   <g id="legend_1">
    <g id="patch_7">
     <path d="M 65.3 96.951531 
L 112.734063 96.951531 
Q 114.934063 96.951531 114.934063 94.751531 
L 114.934063 49.172 
Q 114.934063 46.972 112.734063 46.972 
L 65.3 46.972 
Q 63.1 46.972 63.1 49.172 
L 63.1 94.751531 
Q 63.1 96.951531 65.3 96.951531 
z
" style="fill:#eaeaf2;opacity:0.8;stroke:#cccccc;stroke-linejoin:miter;"/>
    </g>
    <g id="patch_8">
     <path d="M 67.5 59.245594 
L 89.5 59.245594 
L 89.5 51.545594 
L 67.5 51.545594 
z
" style="fill:#e41a1c;opacity:0.4;stroke:#ffffff;stroke-linejoin:miter;"/>
    </g>
    <g id="text_14">
     <!-- a -->
     <defs>
      <path d="M 40.4375 6.390625 
Q 35.546875 2.25 31.03125 0.53125 
Q 26.515625 -1.171875 21.34375 -1.171875 
Q 12.796875 -1.171875 8.203125 3 
Q 3.609375 7.171875 3.609375 13.671875 
Q 3.609375 17.484375 5.34375 20.625 
Q 7.078125 23.78125 9.890625 25.6875 
Q 12.703125 27.59375 16.21875 28.5625 
Q 18.796875 29.25 24.03125 29.890625 
Q 34.671875 31.15625 39.703125 32.90625 
Q 39.75 34.71875 39.75 35.203125 
Q 39.75 40.578125 37.25 42.78125 
Q 33.890625 45.75 27.25 45.75 
Q 21.046875 45.75 18.09375 43.578125 
Q 15.140625 41.40625 13.71875 35.890625 
L 5.125 37.0625 
Q 6.296875 42.578125 8.984375 45.96875 
Q 11.671875 49.359375 16.75 51.1875 
Q 21.828125 53.03125 28.515625 53.03125 
Q 35.15625 53.03125 39.296875 51.46875 
Q 43.453125 49.90625 45.40625 47.53125 
Q 47.359375 45.171875 48.140625 41.546875 
Q 48.578125 39.3125 48.578125 33.453125 
L 48.578125 21.734375 
Q 48.578125 9.46875 49.140625 6.21875 
Q 49.703125 2.984375 51.375 0 
L 42.1875 0 
Q 40.828125 2.734375 40.4375 6.390625 
z
M 39.703125 26.03125 
Q 34.90625 24.078125 25.34375 22.703125 
Q 19.921875 21.921875 17.671875 20.9375 
Q 15.4375 19.96875 14.203125 18.09375 
Q 12.984375 16.21875 12.984375 13.921875 
Q 12.984375 10.40625 15.640625 8.0625 
Q 18.3125 5.71875 23.4375 5.71875 
Q 28.515625 5.71875 32.46875 7.9375 
Q 36.421875 10.15625 38.28125 14.015625 
Q 39.703125 17 39.703125 22.796875 
z
" id="ArialMT-97"/>
     </defs>
     <g style="fill:#262626;" transform="translate(98.3 59.245594)scale(0.11 -0.11)">
      <use xlink:href="#ArialMT-97"/>
     </g>
    </g>
    <g id="patch_9">
     <path d="M 67.5 74.805437 
L 89.5 74.805437 
L 89.5 67.105437 
L 67.5 67.105437 
z
" style="fill:#377eb8;opacity:0.4;stroke:#ffffff;stroke-linejoin:miter;"/>
    </g>
    <g id="text_15">
     <!-- ab -->
     <defs>
      <path d="M 14.703125 0 
L 6.546875 0 
L 6.546875 71.578125 
L 15.328125 71.578125 
L 15.328125 46.046875 
Q 20.90625 53.03125 29.546875 53.03125 
Q 34.328125 53.03125 38.59375 51.09375 
Q 42.875 49.171875 45.625 45.671875 
Q 48.390625 42.1875 49.953125 37.25 
Q 51.515625 32.328125 51.515625 26.703125 
Q 51.515625 13.375 44.921875 6.09375 
Q 38.328125 -1.171875 29.109375 -1.171875 
Q 19.921875 -1.171875 14.703125 6.5 
z
M 14.59375 26.3125 
Q 14.59375 17 17.140625 12.84375 
Q 21.296875 6.0625 28.375 6.0625 
Q 34.125 6.0625 38.328125 11.0625 
Q 42.53125 16.0625 42.53125 25.984375 
Q 42.53125 36.140625 38.5 40.96875 
Q 34.46875 45.796875 28.765625 45.796875 
Q 23 45.796875 18.796875 40.796875 
Q 14.59375 35.796875 14.59375 26.3125 
z
" id="ArialMT-98"/>
     </defs>
     <g style="fill:#262626;" transform="translate(98.3 74.805437)scale(0.11 -0.11)">
      <use xlink:href="#ArialMT-97"/>
      <use x="55.615234" xlink:href="#ArialMT-98"/>
     </g>
    </g>
    <g id="patch_10">
     <path d="M 67.5 90.365281 
L 89.5 90.365281 
L 89.5 82.665281 
L 67.5 82.665281 
z
" style="fill:#4daf4a;opacity:0.4;stroke:#ffffff;stroke-linejoin:miter;"/>
    </g>
    <g id="text_16">
     <!-- b -->
     <g style="fill:#262626;" transform="translate(98.3 90.365281)scale(0.11 -0.11)">
      <use xlink:href="#ArialMT-98"/>
     </g>
    </g>
   </g>
  </g>
 </g>
 <defs>
  <clipPath id="p627a6ad221">
   <rect height="266.112" width="357.12" x="57.6" y="41.472"/>
  </clipPath>
 </defs>
</svg>
